<svg id="Layer_1" data-name="Layer 1" xmlns="http://www.w3.org/2000/svg" viewBox="0 0 764.15 432.03"><defs><style>.cls-1,.cls-4,.cls-6,.cls-7{fill:#1f1c3d;}.cls-2{fill:#f3a026;}.cls-3,.cls-5{fill:#f08329;}.cls-4,.cls-5{font-size:120px;font-family:MontiRegular, Monti;}.cls-6{font-size:37.71px;font-family:Poppins-ExtraBoldItalic, Poppins;font-weight:800;}.cls-6,.cls-7{font-style:italic;}.cls-7{font-size:20px;font-family:Poppins-SemiBoldItalic, Poppins;font-weight:600;}</style></defs><circle class="cls-1" cx="672.49" cy="71.91" r="41.13"/><circle class="cls-1" cx="672.25" cy="71.67" r="41.13"/><circle class="cls-1" cx="535.43" cy="222.92" r="106.01"/><circle class="cls-1" cx="718.69" cy="294.37" r="45.44"/><circle class="cls-1" cx="374.03" cy="135.42" r="36.83"/><circle class="cls-1" cx="515.27" cy="395.2" r="36.83"/><path class="cls-1" d="M475.83,227.55s40.7-16.13,49.08,62.09L549,242l8.25-39.85s-42.13,26.07-52.17-18.18Z" transform="translate(-94.94 -55.93)"/><path class="cls-1" d="M635.08,424s-19.72-21,8.47-39.93l-25.61-20.76-47.09,3.3s40.54,30.19,14.06,57.86Z" transform="translate(-94.94 -55.93)"/><path class="cls-1" d="M705.63,353.5s46.75-51.1,64,8.2l31.51-13L792.54,310s-45,20.49-57.29-46.61Z" transform="translate(-94.94 -55.93)"/><path class="cls-1" d="M726.64,134.51s12.5,56.85-67.61,42.26l40.21,42,31.44,25.72s-22.4-64.27,37.08-75.54" transform="translate(-94.94 -55.93)"/><circle class="cls-1" cx="385.06" cy="73.07" r="17.48"/><circle class="cls-1" cx="355.66" cy="86.4" r="7.78"/><circle class="cls-1" cx="319.01" cy="142.9" r="12.59"/><circle class="cls-1" cx="600.51" cy="79.5" r="20.92"/><circle class="cls-1" cx="670.65" cy="9.82" r="9.82"/><circle class="cls-1" cx="471.37" cy="364.67" r="12.59"/><circle class="cls-1" cx="738.79" cy="82.84" r="12.59"/><circle class="cls-1" cx="646.59" cy="301.09" r="17.37"/><path class="cls-1" d="M599.28,315" transform="translate(-94.94 -55.93)"/><path class="cls-1" d="M736.35,440.11" transform="translate(-94.94 -55.93)"/><path class="cls-2" d="M641.3,299.7l-25.12,30.5a.9.9,0,0,1-.69.32.93.93,0,0,1-.46-.12.91.91,0,0,1-.38-1.11l11.7-30.87h-12a.89.89,0,0,1-.77-.44.87.87,0,0,1,0-.88l12.86-24.52H607.34a.89.89,0,0,1-.77-.43.87.87,0,0,1,0-.88l21.36-41.59a.92.92,0,0,1,.81-.49H655a.9.9,0,0,1,.78.45.92.92,0,0,1,0,.91l-12.66,21.69h14.23a.9.9,0,0,1,.76,1.39l-18.23,28.55h13.89a.92.92,0,0,1,.82.52.91.91,0,0,1-.12,1l-9.65,11.71" transform="translate(-94.94 -55.93)"/><path class="cls-3" d="M613.55,297.1a.87.87,0,0,0,0,.88.89.89,0,0,0,.77.44h12l-11.7,30.87a.91.91,0,0,0,.38,1.11l.08,0,26.26-39.8H627.82a.92.92,0,0,1-.77-.44.89.89,0,0,1,0-.88l12.86-24.52H624.13a.9.9,0,0,1-.8-1.32L641,229.19H628.71a.92.92,0,0,0-.81.49l-21.36,41.58a.9.9,0,0,0,.8,1.32h19.07Z" transform="translate(-94.94 -55.93)"/><text class="cls-4" transform="translate(0 248.91)">quaren</text><text class="cls-5" transform="translate(146.04 336.93)">tech</text><text class="cls-6" transform="translate(257.39 373.97)">IELUSC</text><text class="cls-7" transform="translate(229.29 373.97)">by</text></svg>