<?xml version="1.0" encoding="UTF-8"?>
<svg width="420px" height="420px" viewBox="0 0 420 420" version="1.1" xmlns="http://www.w3.org/2000/svg" xmlns:xlink="http://www.w3.org/1999/xlink">
    <!-- Generator: Sketch 42 (36781) - http://www.bohemiancoding.com/sketch -->
    <title>sticker</title>
    <desc>Created with Sketch.</desc>
    <defs></defs>
    <g id="Logo" stroke="none" stroke-width="1" fill="none" fill-rule="evenodd" stroke-linecap="round">
        <g id="sticker" stroke-width="14">
            <g id="cocoahead-dark" transform="translate(23.000000, 45.000000)" stroke="#4A4A4A">
                <path d="M102.350465,126.951768 C102.350465,126.951768 112.504144,125.627328 115.982363,125.268512 C119.949688,124.859241 125.173368,124.337002 125.173368,124.337002 C125.173368,124.337002 136.175379,123.718447 142.249139,123.718447 C148.670469,123.718447 162.518305,123.916188 162.518305,123.916188 C162.518305,123.916188 167.914744,124.195617 170.969298,124.337002 C174.622995,124.50612 182.783391,125.268512 182.783391,125.268512" id="Path-4"></path>
                <path d="M52.3752728,192.395535 L54.8555797,206.047879 L56.9246778,220.974922 L58.308428,235.838774 L59.0013909,253.1093 L59.0013909,272.714594 L58.1017357,288.342176 L56.7886961,302.520742 L54.9186752,317.806225 L53.8841261,324.189522 L58.0941208,327.297824 L68.7975153,331.442227 C68.7975153,331.442227 83.0331715,334.757528 83.0331715,334.757532 C83.0331715,334.757536 99.8078787,338.144743 99.8078787,338.144743 L115.620923,340.288851 L128.54354,341.380515 L145.183353,341.723703 L181.406712,341.723703 L194.704638,341.101607 L208.725987,339.444499 L224.482463,336.535573 L241.463863,332.391169 L256.790636,327.816419 L270.469311,323.043383 L275.315701,319.57664 L272.204438,305.669355 L269.650157,286.638221 L267.588674,267.988406 L265.519576,246.772852 L264.899499,226.744838 L264.835316,207.641797 L265.65447,182.018184" id="Path-8"></path>
                <path d="M202.550241,136.529981 C202.550241,136.529981 192.741067,139.192208 188.211785,142.535532 C183.682503,145.878856 181.263116,149.755792 181.263116,157.027563 C181.263116,164.299334 192.81378,171.706087 196.565956,173.413427 C200.318133,175.120767 204.083288,177.289369 216.412763,178.529651 C228.742238,179.769934 223.744431,179.468047 241.328969,179.765128 C258.913507,180.062209 267.117233,179.994735 272.419834,179.765128 C277.722434,179.535521 282.594242,178.589568 286.41725,177.81277 C290.240257,177.035972 293.165067,175.549899 293.165067,175.549899 C293.165067,175.549899 304.869406,170.883925 305.609164,162.089312 C306.348922,153.294699 300.331191,149.11445 296.770355,145.878857 C293.20952,142.643264 292.923891,142.553992 288.406935,139.654625 C283.889978,136.755258 282.69021,136.108763 278.444368,134.11568 C274.198527,132.122598 273.560989,132.006647 268.950667,130.521467 C264.340346,129.036288 256.891085,127.27505 244.680647,126.855348 C232.470209,126.435646 225.049235,126.720252 225.049235,126.720252" id="Path-7"></path>
                <path d="M105.493003,258.700541 L224.673657,258.700541 L223.476198,264.924772 L220.778321,269.985433 L214.340401,278.218676 L206.59053,285.279632 C206.59053,285.279632 197.836568,291.288146 197.83657,291.288145 C197.836572,291.288144 188.008898,295.098076 188.008898,295.098076 L179.852169,297.242184 L173.542616,298.349102 L159.48972,298.978824 L147.266593,299.122636 L137.311642,298.014629 L126.910671,294.420416 L116.406354,289.232286 L109.085097,282.099423 L105.837853,274.54493 C105.837853,274.54493 104.234898,271.528928 103.967832,269.985433 C103.611558,267.926362 103.967832,262.208685 103.967832,262.208685 L105.493003,258.700541 Z" id="Path-9" stroke-linejoin="round"></path>
                <path d="M32.5850335,141.859744 C32.5850335,141.859744 22.1513536,141.367297 14.145367,145.635902 C6.13938043,149.904506 4.13921752,154.653985 2.80448992,156.205002 C-0.530400263,160.080302 0.0701691919,163.946219 0.0701691919,168.34623 C0.0701691919,171.992944 2.48389347,174.807275 6.13938024,178.575549 C9.79486702,182.343823 13.9203983,184.309507 16.6523263,185.405395 C22.1503758,187.610888 23.7972671,187.737377 29.6391262,188.7207 C35.4809853,189.704023 32.1582601,189.262306 42.0765599,189.684895 C51.9948597,190.107484 62.0114827,190.099989 62.0114827,190.099989 C62.0114827,190.099989 83.2171139,188.097876 90.6753452,184.074044 C98.1335765,180.050212 103.319471,175.092324 103.319471,175.092324 C103.319471,175.092324 107.251922,171.355927 107.881935,166.062667 C108.511947,160.769408 105.66706,155.368277 105.66706,155.368277 C105.66706,155.368277 102.277366,150.866825 97.2633885,147.605691 C92.2494109,144.344558 84.8977531,141.859744 84.8977531,141.859744 L71.5606642,140.337733 L59.2581244,140.058825" id="Path-10"></path>
                <path d="M69.2081802,0.402020196 C69.2081802,0.402020196 84.6865923,8.17486824 85.4541904,24.6457991 C86.2217884,41.1167299 71.811501,55.4006115 71.6085298,70.6722088 C71.4055586,85.9438061 84.5713969,93.5775546 84.5713969,93.5775546" id="Path-10"></path>
                <path d="M134.37498,0.402020196 C134.37498,0.402020196 149.853393,8.17486824 150.620991,24.6457991 C151.388589,41.1167299 136.978301,55.4006115 136.77533,70.6722088 C136.572359,85.9438061 149.738197,93.5775546 149.738197,93.5775546" id="Path-11"></path>
                <path d="M203.71914,0.402020196 C203.71914,0.402020196 219.197552,8.17486824 219.96515,24.6457991 C220.732748,41.1167299 206.322461,55.4006115 206.119489,70.6722088 C205.916518,85.9438061 219.082357,93.5775546 219.082357,93.5775546" id="Path-12"></path>
                <path d="M146.30493,175.203997 C146.30493,175.203997 141.133567,182.229436 138.557235,192.3111 C135.980903,202.392764 132.552281,220.776091 145.097412,227.8523 C157.642544,234.928509 180.311243,216.950362 180.311243,216.950362" id="Path-10"></path>
                <path d="M298.735322,243.421422 C298.735322,243.421422 325.019821,233.710773 335.527824,229.3288 C346.035827,224.946826 360.504974,216.404774 365.058552,212.890175 C375.689609,204.68478 379.3184,190.217998 379.547947,181.884337 C379.777495,173.550677 379.490497,163.534755 370.448708,151.562906 C361.40692,139.591057 347.155898,138.99178 342.975808,138.99178 C338.795718,138.99178 326.668124,143.101053 326.668124,143.101053" id="Path-10"></path>
            </g>
            <g id="cocoahead" transform="translate(20.000000, 39.000000)" stroke="#FFFFFF">
                <path d="M102.350465,126.951768 C102.350465,126.951768 112.504144,125.627328 115.982363,125.268512 C119.949688,124.859241 125.173368,124.337002 125.173368,124.337002 C125.173368,124.337002 136.175379,123.718447 142.249139,123.718447 C148.670469,123.718447 162.518305,123.916188 162.518305,123.916188 C162.518305,123.916188 167.914744,124.195617 170.969298,124.337002 C174.622995,124.50612 182.783391,125.268512 182.783391,125.268512" id="Path-4"></path>
                <path d="M52.3752728,192.395535 L54.8555797,206.047879 L56.9246778,220.974922 L58.308428,235.838774 L59.0013909,253.1093 L59.0013909,272.714594 L58.1017357,288.342176 L56.7886961,302.520742 L54.9186752,317.806225 L53.8841261,324.189522 L58.0941208,327.297824 L68.7975153,331.442227 C68.7975153,331.442227 83.0331715,334.757528 83.0331715,334.757532 C83.0331715,334.757536 99.8078787,338.144743 99.8078787,338.144743 L115.620923,340.288851 L128.54354,341.380515 L145.183353,341.723703 L181.406712,341.723703 L194.704638,341.101607 L208.725987,339.444499 L224.482463,336.535573 L241.463863,332.391169 L256.790636,327.816419 L270.469311,323.043383 L275.315701,319.57664 L272.204438,305.669355 L269.650157,286.638221 L267.588674,267.988406 L265.519576,246.772852 L264.899499,226.744838 L264.835316,207.641797 L265.65447,182.018184" id="Path-8"></path>
                <path d="M202.550241,136.529981 C202.550241,136.529981 192.741067,139.192208 188.211785,142.535532 C183.682503,145.878856 181.263116,149.755792 181.263116,157.027563 C181.263116,164.299334 192.81378,171.706087 196.565956,173.413427 C200.318133,175.120767 204.083288,177.289369 216.412763,178.529651 C228.742238,179.769934 223.744431,179.468047 241.328969,179.765128 C258.913507,180.062209 267.117233,179.994735 272.419834,179.765128 C277.722434,179.535521 282.594242,178.589568 286.41725,177.81277 C290.240257,177.035972 293.165067,175.549899 293.165067,175.549899 C293.165067,175.549899 304.869406,170.883925 305.609164,162.089312 C306.348922,153.294699 300.331191,149.11445 296.770355,145.878857 C293.20952,142.643264 292.923891,142.553992 288.406935,139.654625 C283.889978,136.755258 282.69021,136.108763 278.444368,134.11568 C274.198527,132.122598 273.560989,132.006647 268.950667,130.521467 C264.340346,129.036288 256.891085,127.27505 244.680647,126.855348 C232.470209,126.435646 225.049235,126.720252 225.049235,126.720252" id="Path-7"></path>
                <path d="M105.493003,258.700541 L224.673657,258.700541 L223.476198,264.924772 L220.778321,269.985433 L214.340401,278.218676 L206.59053,285.279632 C206.59053,285.279632 197.836568,291.288146 197.83657,291.288145 C197.836572,291.288144 188.008898,295.098076 188.008898,295.098076 L179.852169,297.242184 L173.542616,298.349102 L159.48972,298.978824 L147.266593,299.122636 L137.311642,298.014629 L126.910671,294.420416 L116.406354,289.232286 L109.085097,282.099423 L105.837853,274.54493 C105.837853,274.54493 104.234898,271.528928 103.967832,269.985433 C103.611558,267.926362 103.967832,262.208685 103.967832,262.208685 L105.493003,258.700541 Z" id="Path-9" stroke-linejoin="round"></path>
                <path d="M32.5850335,141.859744 C32.5850335,141.859744 22.1513536,141.367297 14.145367,145.635902 C6.13938043,149.904506 4.13921752,154.653985 2.80448992,156.205002 C-0.530400263,160.080302 0.0701691919,163.946219 0.0701691919,168.34623 C0.0701691919,171.992944 2.48389347,174.807275 6.13938024,178.575549 C9.79486702,182.343823 13.9203983,184.309507 16.6523263,185.405395 C22.1503758,187.610888 23.7972671,187.737377 29.6391262,188.7207 C35.4809853,189.704023 32.1582601,189.262306 42.0765599,189.684895 C51.9948597,190.107484 62.0114827,190.099989 62.0114827,190.099989 C62.0114827,190.099989 83.2171139,188.097876 90.6753452,184.074044 C98.1335765,180.050212 103.319471,175.092324 103.319471,175.092324 C103.319471,175.092324 107.251922,171.355927 107.881935,166.062667 C108.511947,160.769408 105.66706,155.368277 105.66706,155.368277 C105.66706,155.368277 102.277366,150.866825 97.2633885,147.605691 C92.2494109,144.344558 84.8977531,141.859744 84.8977531,141.859744 L71.5606642,140.337733 L59.2581244,140.058825" id="Path-10"></path>
                <path d="M69.2081802,0.402020196 C69.2081802,0.402020196 84.6865923,8.17486824 85.4541904,24.6457991 C86.2217884,41.1167299 71.811501,55.4006115 71.6085298,70.6722088 C71.4055586,85.9438061 84.5713969,93.5775546 84.5713969,93.5775546" id="Path-10"></path>
                <path d="M134.37498,0.402020196 C134.37498,0.402020196 149.853393,8.17486824 150.620991,24.6457991 C151.388589,41.1167299 136.978301,55.4006115 136.77533,70.6722088 C136.572359,85.9438061 149.738197,93.5775546 149.738197,93.5775546" id="Path-11"></path>
                <path d="M203.71914,0.402020196 C203.71914,0.402020196 219.197552,8.17486824 219.96515,24.6457991 C220.732748,41.1167299 206.322461,55.4006115 206.119489,70.6722088 C205.916518,85.9438061 219.082357,93.5775546 219.082357,93.5775546" id="Path-12"></path>
                <path d="M146.30493,175.203997 C146.30493,175.203997 141.133567,182.229436 138.557235,192.3111 C135.980903,202.392764 132.552281,220.776091 145.097412,227.8523 C157.642544,234.928509 180.311243,216.950362 180.311243,216.950362" id="Path-10"></path>
                <path d="M298.735322,243.421422 C298.735322,243.421422 325.019821,233.710773 335.527824,229.3288 C346.035827,224.946826 360.504974,216.404774 365.058552,212.890175 C375.689609,204.68478 379.3184,190.217998 379.547947,181.884337 C379.777495,173.550677 379.490497,163.534755 370.448708,151.562906 C361.40692,139.591057 347.155898,138.99178 342.975808,138.99178 C338.795718,138.99178 326.668124,143.101053 326.668124,143.101053" id="Path-10"></path>
            </g>
        </g>
    </g>
</svg>